<?xml version="1.0" standalone="no"?>
<!DOCTYPE svg PUBLIC "-//W3C//DTD SVG 20010904//EN"
 "http://www.w3.org/TR/2001/REC-SVG-20010904/DTD/svg10.dtd">
<svg version="1.0" xmlns="http://www.w3.org/2000/svg"
 width="321.000000pt" height="320.000000pt" viewBox="0 0 321.000000 320.000000"
 preserveAspectRatio="xMidYMid meet">

<g transform="translate(0.000000,320.000000) scale(0.100000,-0.100000)"
fill="#000000" stroke="none">
<path d="M42 1598 l3 -1553 1557 -3 1558 -2 -2 1052 c0 619 -5 1024 -9 983 -5
-38 -11 -500 -15 -1025 -3 -578 -9 -956 -15 -958 -5 -2 -7 -7 -4 -12 8 -12
-22 -18 -80 -15 -79 3 -87 4 -81 14 3 5 -15 4 -40 -1 -32 -7 -54 -6 -73 2 -20
8 -40 9 -67 2 -58 -14 -326 -10 -332 6 -5 17 -22 15 -22 -4 0 -12 -10 -14 -59
-10 -32 3 -71 11 -86 18 -24 11 -29 10 -45 -10 -23 -29 -70 -30 -77 -2 -4 14
-14 20 -34 20 -16 0 -29 -5 -29 -11 0 -17 -161 -4 -171 13 -6 10 -17 8 -45 -7
-28 -15 -38 -17 -42 -7 -5 17 -22 15 -44 -5 -15 -13 -22 -14 -41 -4 -17 9 -61
10 -177 3 -85 -5 -173 -5 -195 -1 -22 5 -55 5 -74 2 -24 -4 -32 -2 -27 5 9 15
-73 6 -129 -13 -43 -15 -278 -15 -595 0 -91 5 -217 9 -280 10 -63 1 -120 2
-127 3 -7 1 -13 23 -15 50 -3 43 -4 45 -14 22 -10 -23 -12 -23 -17 -5 -9 30 0
196 12 229 6 15 11 49 11 75 0 25 0 75 0 111 0 36 -5 75 -11 87 -9 17 -8 29 5
56 11 24 16 58 14 109 -1 62 -2 66 -7 29 -6 -42 -31 -72 -31 -37 0 9 -4 16
-10 16 -14 0 -13 43 2 58 9 9 9 18 0 36 -8 18 -8 34 0 56 8 23 7 38 -1 56 -15
33 -14 44 4 44 19 0 20 16 1 27 -17 10 -31 53 -17 53 5 0 13 -5 16 -10 4 -6
11 -8 16 -5 5 4 9 -6 9 -20 0 -17 5 -25 12 -22 8 2 13 21 13 48 0 39 -3 44
-25 48 -14 1 -28 8 -32 15 -11 15 -1 96 13 112 8 10 9 14 0 14 -16 0 -14 21 6
42 15 17 15 18 -5 18 -19 0 -20 3 -10 25 8 17 8 32 0 52 -10 26 -18 125 -12
148 2 6 3 21 4 35 1 15 7 25 16 25 8 0 16 8 18 18 3 13 -1 17 -14 15 -15 -3
-17 8 -19 92 -1 52 -5 102 -9 111 -4 8 -2 26 3 40 l10 24 0 -25 c1 -15 5 -20
10 -15 6 6 7 53 2 120 -4 61 -6 124 -5 140 1 17 3 38 3 47 1 10 7 17 14 15 7
-1 13 11 15 30 3 26 0 32 -11 27 -23 -9 -29 13 -12 45 19 37 19 51 1 51 -14 0
-16 52 -2 83 5 10 6 33 3 52 -3 19 -1 37 4 41 6 3 6 10 1 17 -12 16 -13 157
-1 157 5 0 9 9 9 20 0 11 -4 20 -9 20 -14 0 -21 41 -10 61 6 11 6 20 -1 24 -6
4 -6 13 -1 23 5 9 14 35 20 57 6 22 13 50 16 62 4 16 0 25 -15 33 -11 6 -20
20 -20 30 0 18 7 20 73 20 64 -1 70 -2 53 -15 -16 -12 -7 -14 80 -14 62 0 101
5 106 12 5 8 14 8 33 -1 34 -16 55 -15 55 2 0 20 159 28 225 11 28 -8 67 -14
86 -13 19 0 71 -3 117 -7 60 -6 94 -4 123 5 36 12 44 12 70 -4 46 -27 132 -33
166 -10 15 10 37 19 48 21 11 1 45 6 75 12 42 7 61 6 82 -5 29 -15 126 -10
161 8 12 6 19 5 23 -6 5 -14 8 -14 27 -1 29 21 101 20 93 0 -4 -11 1 -15 18
-15 13 0 27 7 30 16 6 15 18 16 99 9 50 -4 111 -8 134 -9 23 -1 45 -5 49 -9
10 -10 52 -9 58 1 8 14 448 7 474 -7 16 -8 27 -9 35 -2 18 14 124 12 169 -3
33 -12 40 -12 58 4 15 13 34 17 78 14 118 -7 161 -15 165 -32 3 -10 5 2 6 26
l1 42 -1560 0 -1560 0 2 -1552z"/>
<path d="M3151 2954 c0 -11 3 -14 6 -6 3 7 2 16 -1 19 -3 4 -6 -2 -5 -13z"/>
<path d="M3147 2828 c-3 -18 -2 -62 2 -98 l8 -65 2 98 c1 100 -3 121 -12 65z"/>
<path d="M3148 2565 c-1 -19 -3 -47 -5 -62 -12 -85 -14 -225 -4 -237 7 -8 9
-25 6 -39 -4 -14 -2 -28 4 -31 8 -5 11 54 11 198 0 113 -2 206 -5 206 -3 0 -6
-16 -7 -35z"/>
<path d="M878 2140 c-3 -60 -1 -70 13 -70 10 0 20 11 24 28 13 55 32 72 80 72
l45 0 0 -200 0 -199 -32 -9 c-17 -4 -33 -13 -36 -20 -3 -9 29 -12 123 -12 97
0 126 3 123 13 -3 6 -18 14 -34 17 l-29 5 -3 203 -2 202 45 0 c48 0 67 -17 80
-72 4 -17 14 -28 24 -28 14 0 16 10 13 70 l-4 70 -213 0 -213 0 -4 -70z"/>
<path d="M1342 2198 c3 -7 18 -16 35 -20 l30 -8 6 -93 c3 -50 3 -141 0 -200
l-6 -107 -30 -8 c-17 -4 -32 -13 -35 -20 -3 -9 30 -12 127 -12 79 0 131 4 131
10 0 5 -12 12 -27 16 -16 3 -34 7 -40 10 -9 2 -13 31 -13 99 l0 96 93 -3 92
-3 3 -83 c3 -92 -3 -106 -48 -116 -17 -3 -30 -10 -30 -16 0 -6 48 -10 130 -10
78 0 130 4 130 10 0 5 -12 13 -27 16 -53 13 -53 14 -53 208 0 195 4 212 49
218 14 2 26 9 29 16 3 9 -27 12 -127 12 -79 0 -131 -4 -131 -10 0 -5 12 -13
28 -16 47 -12 52 -21 52 -105 l0 -79 -95 0 -95 0 0 85 0 84 40 11 c74 20 43
30 -91 30 -97 0 -130 -3 -127 -12z"/>
<path d="M1900 2200 c0 -5 15 -13 33 -18 28 -7 33 -13 39 -53 9 -59 10 -188 2
-283 -7 -74 -8 -76 -37 -84 -17 -4 -32 -13 -35 -20 -3 -9 46 -12 201 -12 l204
0 17 58 c19 70 19 72 4 71 -7 0 -27 -19 -43 -42 l-31 -42 -87 -3 -87 -3 0 96
0 96 62 -3 c60 -3 62 -4 70 -35 5 -18 14 -33 22 -33 9 0 13 23 13 90 0 99 -12
115 -40 55 -16 -34 -19 -35 -72 -35 l-55 0 0 85 0 86 88 -3 87 -3 18 -37 c18
-37 56 -56 43 -22 -3 9 -6 36 -6 60 l0 44 -205 0 c-126 0 -205 -4 -205 -10z"/>
<path d="M80 1546 c0 -8 5 -18 10 -21 6 -3 10 -15 10 -26 0 -11 4 -18 8 -15
14 8 1 76 -14 76 -8 0 -14 -6 -14 -14z"/>
<path d="M1177 1553 c-3 -4 -40 -87 -82 -183 -119 -269 -151 -329 -180 -336
-14 -3 -25 -12 -25 -20 0 -11 21 -14 95 -14 74 0 95 3 95 14 0 7 -13 16 -30
20 -36 7 -37 17 -9 85 l22 51 94 0 94 0 19 -46 c28 -65 26 -83 -10 -90 -16 -4
-30 -13 -30 -20 0 -11 27 -14 135 -14 109 0 135 3 135 14 0 8 -14 19 -30 25
-34 11 -43 28 -186 351 -66 148 -92 188 -107 163z m22 -256 c18 -44 30 -81 28
-83 -3 -3 -36 -4 -75 -2 l-70 3 36 87 c21 48 40 84 43 80 3 -4 21 -42 38 -85z"/>
<path d="M2383 1542 c-128 -46 -193 -140 -193 -281 0 -120 46 -203 136 -246
56 -27 213 -31 324 -8 l85 18 3 99 c1 55 7 105 13 112 6 7 23 14 37 16 15 2
27 9 27 16 0 10 -32 14 -138 15 -125 2 -137 0 -137 -15 0 -12 8 -18 24 -18 44
0 56 -24 56 -110 0 -45 -5 -82 -11 -85 -6 -4 -36 -9 -68 -12 -134 -12 -221 79
-221 233 0 149 72 234 200 234 91 0 129 -22 155 -88 13 -35 26 -52 38 -52 15
0 17 11 17 84 0 100 11 93 -175 102 -101 4 -128 2 -172 -14z"/>
<path d="M390 1536 c0 -8 16 -18 38 -23 34 -8 37 -12 44 -53 9 -58 8 -358 -1
-390 -5 -18 -17 -27 -44 -33 -22 -6 -37 -15 -37 -24 0 -13 24 -14 173 -11 162
3 175 5 217 28 60 34 90 80 90 139 0 68 -32 105 -105 121 l-30 6 30 16 c57 30
80 65 80 118 0 98 -53 120 -294 120 -131 0 -161 -3 -161 -14z m289 -37 c38
-14 51 -35 51 -88 0 -57 -32 -91 -93 -98 l-47 -6 0 96 c0 67 4 97 13 100 20 9
42 8 76 -4z m30 -248 c26 -14 45 -74 36 -118 -10 -56 -44 -83 -105 -83 l-50 0
0 111 0 112 50 -6 c27 -3 58 -11 69 -16z"/>
<path d="M1510 1536 c0 -7 14 -16 32 -20 58 -12 58 -11 58 -221 0 -242 -1
-249 -48 -261 -19 -5 -37 -15 -40 -21 -3 -10 24 -13 112 -13 90 0 116 3 116
13 0 8 -17 18 -37 23 -38 9 -38 10 -44 69 -4 33 -7 123 -8 200 l0 140 29 -35
c16 -19 101 -123 187 -231 117 -145 162 -195 175 -191 16 4 18 27 20 261 l3
256 38 9 c20 5 37 15 37 23 0 10 -25 13 -110 13 -87 0 -110 -3 -110 -14 0 -8
15 -17 36 -20 19 -4 37 -12 39 -19 6 -20 11 -287 5 -287 -6 0 -32 32 -199 238
l-83 102 -104 0 c-82 0 -104 -3 -104 -14z"/>
</g>
</svg>
